<svg viewBox="0 0 90 126" width="400" height="560" xmlns="http://www.w3.org/2000/svg">
  <rect x="21.5" y="3.5" width="11" height="11" rx="1.1" fill="#3a3a3a"/>
  <rect x="39.5" y="3.5" width="11" height="11" rx="1.1" fill="#3a3a3a"/>
  <rect x="57.5" y="3.5" width="11" height="11" rx="1.1" fill="#3a3a3a"/>
  <rect x="75.5" y="3.5" width="11" height="11" rx="1.1" fill="#3a3a3a"/>
  <rect x="3.5" y="21.5" width="11" height="11" rx="1.1" fill="#3a3a3a"/>
  <rect x="3.5" y="39.5" width="11" height="11" rx="1.1" fill="#3a3a3a"/>
  <rect x="21.5" y="57.5" width="11" height="11" rx="1.1" fill="#3a3a3a"/>
  <rect x="39.5" y="57.5" width="11" height="11" rx="1.1" fill="#3a3a3a"/>
  <rect x="57.5" y="57.5" width="11" height="11" rx="1.1" fill="#3a3a3a"/>
  <rect x="75.5" y="75.5" width="11" height="11" rx="1.1" fill="#3a3a3a"/>
  <rect x="75.5" y="93.5" width="11" height="11" rx="1.1" fill="#3a3a3a"/>
  <rect x="3.5" y="111.5" width="11" height="11" rx="1.1" fill="#3a3a3a"/>
  <rect x="21.5" y="111.5" width="11" height="11" rx="1.1" fill="#3a3a3a"/>
  <rect x="39.5" y="111.5" width="11" height="11" rx="1.1" fill="#3a3a3a"/>
  <rect x="57.5" y="111.5" width="11" height="11" rx="1.1" fill="#3a3a3a"/>
</svg>
